<?xml version="1.0" encoding="UTF-8"?>
<svg id="Layer_2" xmlns="http://www.w3.org/2000/svg" version="1.1" viewBox="0 0 156.8 39.7">
  <!-- Generator: Adobe Illustrator 29.3.1, SVG Export Plug-In . SVG Version: 2.1.0 Build 151)  -->
  <path d="M18.6,31.4c-1.3-.1-2.7-.5-4.1-1.2-1.4-.7-2.6-1.6-3.6-2.7-1.5.6-2.9.9-4,.9s-1.5-.1-2.2-.4-1.4-.8-2-1.5c-.1-.1-.2-.3-.1-.3s.1-.2.3-.2c.1,0,.3,0,.4,0,.2,0,.3.2.5.3.3.5.7.8,1.2.9.5.2,1,.3,1.4.3s1.1,0,1.7-.2c.6-.2,1.3-.4,2-.7-.7-.8-1.2-1.7-1.6-2.7-.4-1-.6-2-.6-3.1,0-.9.1-1.7.4-2.4s.7-1.3,1.3-1.9c.5-.5,1.2-.9,1.9-1.2.7-.3,1.5-.4,2.3-.4s.8,0,1.1.1c.6.1,1.1.3,1.7.6.6.2,1.1.6,1.5,1,.1.1.1.2,0,.4,0,.2-.2.3-.3.4-.2.1-.3.2-.5.3-.2,0-.3,0-.4,0-.5-.4-1.1-.8-1.6-1.1-.5-.3-1.1-.5-1.7-.5-.7,0-1.4,0-2,.3s-1.1.6-1.5,1.1c-.4.5-.7,1-.9,1.6s-.3,1.3-.2,2c0,1,.3,1.9.7,2.7s.9,1.6,1.6,2.4c1.2-.5,2.4-1.2,3.8-2,1.3-.8,2.7-1.7,4-2.6,1.4-.9,2.7-1.9,4-3,1.3-1,2.6-2.1,3.8-3.2,0-.6.2-1.1.3-1.7,0-.6.2-1.1.3-1.5,0-.5.2-.9.3-1.3s.2-.7.3-1c.3-.6.6-1.1,1-1.5s.9-.8,1.4-1.1c.5-.3,1.1-.5,1.6-.6.6-.1,1.2-.2,1.8-.2s.8,0,1.2.2.6.4.6.7,0,.3-.1.5c0,.2-.2.4-.4.7-.8,1.1-1.8,2.3-3,3.6-1.2,1.3-2.5,2.6-4,3.9-.1.8-.2,1.6-.3,2.4-.1.8-.2,1.5-.3,2.1-.2,1.5-.5,2.9-1,4.2s-1,2.5-1.7,3.6c-.7,1-1.6,1.8-2.6,2.4-1,.6-2.3.8-3.8.7ZM26.2,20.7c0-.5.2-1,.2-1.5s.1-1.1.2-1.7c-1.2,1-2.3,1.9-3.6,2.9-1.2.9-2.5,1.8-3.7,2.6-1.2.8-2.5,1.6-3.7,2.3-1.2.7-2.4,1.3-3.5,1.7,1,.9,2.2,1.6,3.4,2.2s2.5.9,3.6.9c.9,0,1.6,0,2.2-.3.6-.2,1.2-.6,1.6-1.1s.9-1,1.2-1.6c.3-.6.6-1.3.8-2,.2-.7.4-1.5.6-2.2.2-.8.3-1.5.4-2.2ZM29.1,10.9c0,.4-.2.8-.3,1.3,0,.5-.2,1.1-.3,1.7,1.3-1.2,2.4-2.3,3.4-3.3,1-1,1.7-2,2.3-2.8-.1,0-.3,0-.4,0-.1,0-.3,0-.4,0-1,0-2,.3-2.8.8-.8.5-1.3,1.3-1.5,2.3Z"/>
  <path d="M29.7,25.1c-.1,0-.2,0-.3,0,0,0-.1-.2-.2-.3,0-.1,0-.2-.1-.4,0-.1,0-.2,0-.3.2-.4.5-1.1.9-1.9.4-.8.9-1.7,1.4-2.6.5-1,1.1-1.9,1.7-3,.6-1,1.1-2,1.7-2.9s1-1.7,1.4-2.4c.4-.7.7-1.2.9-1.5.1-.2.2-.2.3-.2.1,0,.2.2.3.3,0,.1.2.3.2.5,0,.2,0,.3,0,.4-.3.5-.7,1.2-1.1,1.9s-.9,1.6-1.5,2.5c-.5.9-1.1,1.9-1.7,2.9-.6,1.1-1.2,2.2-1.8,3.3.3-.2.7-.5,1.1-.7s.8-.4,1.3-.6c.4-.2.8-.3,1.2-.4s.7-.1,1-.1c.1,0,.3,0,.3.2,0,.1.2.3.2.5s0,.4,0,.5,0,.3,0,.4c0,0-.1.2-.2.4,0,.2-.2.4-.3.5s-.2.4-.3.6c0,.2-.1.4-.2.5.2,0,.5,0,1-.1s1-.4,1.5-.6c.5-.3,1.1-.5,1.6-.8.5-.3.9-.5,1.2-.7.2-.1.3-.1.4,0,.1,0,.2.2.3.4,0,.2,0,.3.1.5,0,.2,0,.3,0,.3-.3.2-.6.4-1,.7-.4.3-.9.5-1.3.8-.5.2-.9.5-1.4.7-.5.2-1,.3-1.4.3-.3,0-.5,0-.7-.1-.2-.1-.4-.2-.5-.4-.1-.2-.2-.4-.3-.6,0-.2,0-.5,0-.8,0-.1,0-.3.1-.5,0-.2.2-.6.4-1-1.1.4-2.2.9-3.2,1.6-1,.7-1.9,1.4-2.6,2.2h0c0,.1,0,.1-.1.2,0,0,0,0-.1,0Z"/>
  <path d="M43,24.9c-.8,0-1.4-.2-1.8-.7-.4-.4-.6-1-.6-1.7s0-.8.3-1.2c.2-.4.4-.7.7-1,.3-.3.6-.5,1-.7s.8-.3,1.2-.3.8.2,1,.5c.3.3.4.7.4,1.1,0,.2-.1.5-.3.7-.2.2-.4.4-.7.6-.3.2-.6.3-.9.4-.3,0-.7.1-1,.1s-.3,0-.4,0c-.1,0-.3,0-.4-.1-.2.4-.1.7,0,.9s.5.3,1,.3c.6,0,1.1-.1,1.7-.3.6-.2,1.1-.4,1.6-.7.5-.3,1.1-.6,1.5-.9.5-.3,1-.6,1.4-.9.2-.1.3-.1.4,0s.2.2.2.4c0,.2,0,.3,0,.5,0,.2,0,.3,0,.3-.3.2-.6.4-1.1.8-.5.3-1,.6-1.6.9-.6.3-1.2.6-1.9.8s-1.3.3-2,.3ZM42.1,21.5c.4,0,.8-.1,1.2-.3.4-.2.7-.5.8-.8-.3,0-.6,0-1,.3s-.7.5-1.1.8Z"/>
  <path d="M52,19.7c.4,0,.7.1.9.3.2.2.3.5.4.8.2-.1.4-.3.5-.4.1-.1.3-.2.4-.4.1-.1.2-.1.3,0s.2.2.3.3c0,.1.1.3.2.4,0,.2,0,.3,0,.3,0,0-.1.2-.3.6-.1.3-.3.8-.6,1.4.3-.2.7-.3,1.1-.5.4-.2.8-.3,1.2-.5.4-.2.8-.3,1.1-.4.4-.1.7-.2,1-.3.2,0,.3,0,.4.1s.2.3.2.4c0,.2,0,.3,0,.5,0,.2,0,.2-.2.3-.3,0-.6.2-1,.3-.4.1-.8.3-1.2.5s-.8.4-1.3.5c-.4.2-.8.4-1.1.5l-1,.5v.3c-.1,0-1.4,2.4-1.4,2.4-.4.8-1,1.7-1.6,2.6-.6.9-1.3,1.8-1.9,2.6s-1.4,1.5-2.1,2c-.7.6-1.3.9-2,1-.3,0-.7,0-.9-.1-.3-.1-.5-.3-.7-.6s-.4-.6-.5-.9c-.1-.3-.1-.7-.1-1,0-.5.2-1,.5-1.5.3-.5.7-1.1,1.2-1.6.5-.6,1.1-1.1,1.7-1.7.7-.6,1.3-1.1,2-1.6.7-.5,1.4-1,2.1-1.4.7-.4,1.3-.8,1.9-1.1l.9-.5.6-1.3c-.2.1-.4.3-.7.5s-.6.4-.9.6-.6.3-1,.5c-.3.1-.6.2-.9.2-.5,0-.9-.2-1.1-.7s-.4-.9-.4-1.4c0-.4.2-.7.5-1,.3-.3.6-.6,1-.8s.8-.4,1.2-.5c.4-.1.8-.2,1.2-.2ZM44,34.6c.5-.1,1.1-.4,1.7-.9.6-.5,1.3-1.2,1.9-1.9.6-.8,1.3-1.6,1.9-2.5.6-.9,1.1-1.8,1.6-2.6l.4-.7-.2.2c-.8.4-1.5.9-2.3,1.5-.8.6-1.5,1.1-2.3,1.7-.7.6-1.4,1.2-1.9,1.8-.6.6-1,1.2-1.3,1.8,0,.2-.2.3-.2.5,0,.2-.1.4-.1.6s0,.4.2.5c.1.1.4.2.7,0ZM49.2,23c.1,0,.3,0,.5,0,.2,0,.5-.2.8-.3.3-.2.6-.3,1-.6.4-.2.7-.5,1-.7,0-.1,0-.2-.1-.3,0,0-.2-.1-.3-.1-.3,0-.5,0-.9.2-.3.1-.6.3-.9.5-.3.2-.5.4-.8.6-.2.2-.3.5-.4.7Z"/>
  <path d="M60.7,24.9c-.8,0-1.4-.2-1.8-.7-.4-.4-.6-1-.6-1.7s0-.8.3-1.2c.2-.4.4-.7.7-1,.3-.3.6-.5,1-.7s.8-.3,1.2-.3.8.2,1,.5c.3.3.4.7.4,1.1,0,.2-.1.5-.3.7-.2.2-.4.4-.7.6-.3.2-.6.3-.9.4-.3,0-.7.1-1,.1s-.3,0-.4,0c-.1,0-.3,0-.4-.1-.2.4-.1.7,0,.9s.5.3,1,.3c.6,0,1.1-.1,1.7-.3.6-.2,1.1-.4,1.6-.7.5-.3,1.1-.6,1.5-.9.5-.3,1-.6,1.4-.9.2-.1.3-.1.4,0s.2.2.2.4c0,.2,0,.3,0,.5,0,.2,0,.3,0,.3-.3.2-.6.4-1.1.8-.5.3-1,.6-1.6.9-.6.3-1.2.6-1.9.8s-1.3.3-2,.3ZM59.8,21.5c.4,0,.8-.1,1.2-.3.4-.2.7-.5.8-.8-.3,0-.6,0-1,.3s-.7.5-1.1.8Z"/>
  <path d="M69.2,18.9c.2-.3.3-.5.5-.9.2-.3.4-.6.7-.8.1-.1.3-.1.4,0,.1,0,.2.2.3.3s.1.3.1.5c0,.2,0,.3,0,.3,0,.1-.1.2-.2.4-.1.2-.2.3-.4.5-.1.2-.2.3-.4.4-.1.1-.2.2-.2.3.2.2.4.3.8.3s.2,0,.3.2c0,.1.1.2.2.4,0,.1,0,.3,0,.4s0,.2,0,.3c-.3.3-.4.5-.5.7s-.2.4-.2.6,0,.2.2.3c.1,0,.3.1.5.1s.5,0,.8-.1c.3,0,.5-.2.8-.3.3-.1.6-.3.8-.5.3-.2.5-.3.8-.5.2-.2.5-.3.7-.5.2-.2.4-.3.5-.4,0,0,.2,0,.3,0s.2.1.3.2c0,.1.1.3.2.5,0,.2,0,.4,0,.5-.3.2-.6.4-1,.7-.4.3-.8.5-1.2.8-.4.2-.8.4-1.3.6-.4.2-.8.3-1.2.3-.6,0-1-.2-1.4-.6-.4-.4-.6-.9-.6-1.5s0-.8.2-1.1c-.3-.2-.5-.4-.6-.6-.4.3-.7.5-.9.7-.2.2-.4.3-.6.4-.2.1-.3.2-.4.3-.1,0-.2.1-.3.2,0,0-.2,0-.3,0-.1,0-.2,0-.3-.2,0,0,0-.1-.1-.2,0,0,0-.2,0-.3,0-.1,0-.2,0-.3,0,0,0-.2,0-.2.2-.2.5-.3.7-.5.2-.2.5-.4.7-.6.2-.2.5-.4.7-.5s.4-.3.5-.5Z"/>
  <path d="M101.1,13.2c-.3.6-.6,1.2-1,1.6s-.8.9-1.1,1.3c-.4.6-.7,1.2-1.1,1.8s-.8,1.3-1.2,1.9c-.4.7-.8,1.3-1.2,2-.4.6-.8,1.3-1.1,1.9,1-.3,2-.6,3-.8,1-.3,2.1-.5,3.2-.7,1.1-.2,2.1-.4,3.2-.6s2.1-.4,3.1-.5c.7-1,1.2-2.1,1.6-3.3s.5-2.4.5-3.6c0-1.3-.4-2.3-1-3.2-.6-.9-1.4-1.6-2.3-2.1-.9-.5-2-.9-3.2-1.2-1.2-.2-2.3-.4-3.5-.4s-2.2.1-3.4.4c-1.1.3-2.2.6-3.3,1.1-1.1.5-2,1-3,1.7s-1.7,1.4-2.4,2.2c-.7.8-1.2,1.7-1.5,2.6-.4.9-.5,1.9-.4,2.9,0,.5.2.9.4,1.3s.5.7.9,1c.4.3.8.5,1.2.6.5.2,1,.2,1.5.2h.4c.1,0,.2,0,.4,0,.2,0,.3,0,.5,0,.2,0,.3,0,.4-.2.2,0,.4,0,.5.2.2.2.3.3.5.5,0,0,0,.2,0,.3,0,.1,0,.2-.2.2-.4.2-.8.3-1.1.3-.1,0-.3,0-.4,0-.1,0-.2,0-.4,0-.7,0-1.3-.1-2-.4-.6-.2-1.2-.6-1.7-1-.5-.4-.9-.9-1.3-1.5-.3-.6-.6-1.2-.7-1.9,0-.1,0-.3,0-.4v-.4c0-1,.2-1.9.6-2.8s.9-1.8,1.6-2.6c.7-.8,1.5-1.5,2.5-2.2,1-.7,2-1.3,3.1-1.7,1.1-.5,2.3-.9,3.5-1.1,1.2-.3,2.4-.4,3.7-.4s2.8.2,4.1.6c1.3.4,2.5.9,3.5,1.7s1.8,1.6,2.5,2.6c.6,1,1,2.2,1.1,3.5,0,.2,0,.3,0,.5,0,.2,0,.3,0,.5,0,1-.1,1.9-.4,2.8-.2.9-.6,1.8-1,2.6.9-.1,1.8-.2,2.6-.3.8,0,1.5-.2,2.1-.2.1,0,.2,0,.2.2,0,.1,0,.3,0,.4,0,.2-.1.3-.3.4-.1.1-.3.2-.6.3l-4.9.8c-.9,1.3-2,2.5-3.3,3.7s-2.7,2.1-4.2,2.9c-1.5.8-3.1,1.4-4.8,1.9s-3.3.7-5,.7-1,0-1.5-.1c-.5,0-1-.2-1.4-.4-.4-.2-.7-.5-1-.8-.2-.3-.4-.7-.4-1.2s.2-.9.5-1.3.7-.8,1.3-1.2c.6-.4,1.2-.7,2-1.1s1.6-.7,2.5-1c.5-.9,1.1-1.9,1.8-3,.7-1.1,1.4-2.2,2.1-3.3-.5.2-.9.2-1.2.2s-.3,0-.4-.2c0-.1,0-.2,0-.3.4,0,.8-.3,1.3-.5.4-.3.9-.7,1.3-1.2.4-.5.9-1,1.3-1.6.4-.6.8-1.3,1.2-2,0-.1.2-.2.3-.2.2,0,.3,0,.5,0,.2,0,.3.2.4.3.1.2.2.3.2.5ZM91.8,27.4c-.1,0-.2-.2-.4-.4-.2-.2-.2-.4-.2-.5v-.2c-1.2.5-2.2,1-2.9,1.6s-1.1,1.1-1.1,1.7c.3.2.7.4,1.1.4.5,0,.9,0,1.3,0,1.3,0,2.7-.2,4.2-.5,1.4-.3,2.9-.9,4.2-1.5s2.7-1.4,4-2.3c1.2-.9,2.4-1.9,3.3-3-2.2.4-4.3.8-6.5,1.3s-4.1,1-5.8,1.6c-.2.3-.3.6-.5.9-.1.3-.2.5-.3.8-.1.2-.3.3-.5.2Z"/>
  <path d="M114,24.9c-.8,0-1.4-.2-1.8-.7-.4-.4-.6-1-.6-1.7s0-.8.3-1.2c.2-.4.4-.7.7-1s.6-.5,1-.7c.4-.2.8-.3,1.2-.3s.8.2,1,.5c.3.3.4.7.4,1.1,0,.2-.1.5-.3.7-.2.2-.4.4-.7.6-.3.2-.6.3-.9.4-.3,0-.7.1-1,.1s-.3,0-.4,0c-.1,0-.3,0-.4-.1-.2.4-.1.7,0,.9.2.2.5.3,1,.3.6,0,1.1-.1,1.7-.3.6-.2,1.1-.4,1.6-.7s1.1-.6,1.5-.9c.5-.3,1-.6,1.4-.9s.3-.1.4,0c.1.1.2.2.2.4,0,.2,0,.3,0,.5,0,.2,0,.3,0,.3-.3.2-.6.4-1.1.8s-1,.6-1.6.9c-.6.3-1.2.6-1.9.8-.7.2-1.3.3-2,.3ZM113.1,21.5c.4,0,.8-.1,1.2-.3s.7-.5.8-.8c-.3,0-.6,0-1,.3-.4.2-.7.5-1.1.8Z"/>
  <path d="M118.1,23.6c0-.1.1-.2.2-.3,0-.1.1-.3.3-.4l1.6-2.5c0,0,.1-.1.2-.1.1,0,.2,0,.3,0,0,0,.2.2.2.5,0,.3,0,.4,0,.5.6-.3,1.2-.6,1.7-.8.6-.2,1-.4,1.4-.4s.5.1.6.3.1.4.1.6c0,.1,0,.3,0,.5,0,.2,0,.4,0,.6s0,.4,0,.6,0,.4,0,.5c.2,0,.5,0,1-.1.5-.2,1-.4,1.5-.6.5-.3,1.1-.5,1.6-.8.5-.3.9-.5,1.2-.7.2-.1.3-.1.4,0s.2.2.3.4c0,.2,0,.3.1.5,0,.2,0,.3,0,.3-.3.2-.6.4-1,.7-.4.3-.9.5-1.3.8-.5.2-.9.5-1.4.7-.5.2-1,.3-1.4.3-.4,0-.7,0-1-.2s-.4-.4-.5-.7c0-.3-.1-.6-.2-1s0-.8,0-1.1c-1,.3-1.9.7-2.7,1.3-.9.5-1.6,1.1-2.3,1.7-.2.1-.3.1-.5,0-.2-.1-.3-.4-.2-.9Z"/>
  <path d="M127.3,15.1c.8,0,1.7-.1,2.8-.2,1.1,0,2.3-.1,3.5-.2.4-.7.9-1.4,1.3-2,.4-.6.9-1.3,1.3-1.8.2-.2.3-.2.4-.2.1,0,.2.1.3.2,0,.1.1.3.2.4,0,.2,0,.3,0,.4-.3.4-.6.9-.9,1.3-.3.5-.6,1-1,1.5.7,0,1.5,0,2.2,0,.7,0,1.4,0,2,0s1.4,0,1.9,0c.6,0,1.1,0,1.5.1,0,0,0,0,0,0,0,0,0,0,0,0,.2,0,.3.1.4.3,0,.1,0,.3,0,.4s0,.3-.2.3c0,0-.1.1-.2.1-.5,0-1,0-1.4,0s-.7.2-.9.2c0,0,0,0,0-.1,0,0,0-.2,0-.3-.3,0-.6,0-.9,0h-.9c-1.5,0-3,0-4.3,0-.9,1.4-1.7,2.9-2.6,4.4-.9,1.6-1.8,3.1-2.6,4.6-.8,1.5-1.6,2.9-2.2,4.3-.7,1.4-1.2,2.5-1.5,3.5,0,.2-.1.2-.2.3-.1,0-.2,0-.3-.1,0,0-.2-.2-.2-.4,0-.2-.1-.4-.1-.7.3-.8.6-1.7,1.1-2.7.5-1,1-2.2,1.6-3.3.6-1.2,1.3-2.4,2-3.7.7-1.3,1.4-2.5,2.2-3.8h0c0-.5,0-.9-.4-1.1-.3-.3-.7-.5-1.2-.6-.5-.1-.9-.2-1.3-.2s-.7,0-.8,0,0,0,0,0c0,0,0,0,0,0-.2,0-.3,0-.4-.1-.1-.1-.2-.2-.2-.4,0-.1,0-.3,0-.4s.1-.2.2-.2ZM131.9,17.4c.2-.3.3-.5.5-.8.2-.3.3-.5.5-.8l-2.3.2c.3.1.6.3.8.5.2.2.4.5.5.9Z"/>
  <path d="M134.8,24.5c-.4,0-.8-.2-1-.6-.3-.4-.4-.8-.4-1.3s.1-.8.4-1.2c.3-.4.6-.7,1.1-1,.4-.3.9-.5,1.3-.7s.9-.3,1.3-.3.7.1.9.4c.2.2.4.5.5.7.2-.2.3-.3.5-.4.1,0,.2-.1.2-.2.1-.1.3-.1.4,0,.1,0,.2.2.3.3,0,.1.1.3.1.5,0,.2,0,.3,0,.3-.3.3-.5.5-.7.8-.2.3-.4.6-.6,1,.4,0,.8,0,1.3,0,.5-.1.9-.3,1.4-.5.5-.2.9-.5,1.4-.7.4-.3.8-.5,1.2-.8.2-.1.3-.1.4,0,.1,0,.2.2.3.4s0,.3.1.5c0,.2,0,.3,0,.3-.2.1-.4.3-.9.6-.4.3-.9.6-1.4.8-.5.3-1.1.5-1.7.7s-1.1.2-1.6,0c-.4-.1-.7-.3-.8-.5-.2-.2-.3-.5-.4-.9-.2.2-.5.4-.8.5-.3.2-.6.4-.9.5-.3.2-.6.3-.9.4-.3.1-.5.2-.7.2ZM134.6,23.1c0,.1.2,0,.4,0s.6-.3,1-.5c.4-.2.7-.4,1.1-.7.4-.2.7-.4.9-.6,0-.1,0-.2-.1-.3,0-.1-.2-.2-.3-.2-.3,0-.7.1-1,.3-.4.2-.7.4-1,.6-.3.2-.5.5-.7.7-.2.2-.3.4-.2.6Z"/>
  <path d="M145,26.5c-.4,0-.7,0-.9-.2-.2-.1-.4-.3-.6-.5-.1-.2-.2-.5-.3-.7,0-.3,0-.6,0-.8s0-.6,0-.9c0-.3.1-.5.2-.8.2-.7.5-1.4.9-2.2.4-.8.8-1.6,1.3-2.5.5-.9,1-1.7,1.6-2.6.6-.9,1.1-1.8,1.7-2.6.6-.8,1.1-1.6,1.6-2.3.5-.7,1-1.4,1.4-1.9.1-.2.2-.2.3-.1.1,0,.2.2.3.3.1.1.2.3.2.5,0,.2,0,.3,0,.4-.3.4-.6.9-1,1.6s-.9,1.4-1.5,2.2-1.1,1.7-1.7,2.6c-.6.9-1.1,1.8-1.7,2.7-.5.9-1,1.7-1.4,2.6-.4.8-.8,1.5-1,2.2,0,.2-.1.4-.2.7-.1.3-.2.6-.2.9s0,.3.1.4c0,.1.2.2.4.2.4,0,.9-.2,1.6-.5.6-.3,1.3-.8,1.9-1.2.7-.5,1.3-.9,1.8-1.4.6-.5,1-.8,1.3-1,.1-.1.3-.1.4,0,.1,0,.2.2.3.3,0,.1.1.3.1.5,0,.2,0,.3,0,.3-.3.3-.7.7-1.3,1.2-.6.5-1.2,1-1.9,1.5-.7.5-1.3.9-2,1.2-.7.3-1.2.5-1.7.5Z"/>
</svg>